HIERARCHY
ROOT Hips
{
	OFFSET -0.179506 -22.333345 2.821913
	CHANNELS 6 Xposition Yposition Zposition Zrotation Yrotation Xrotation 
	JOINT LeftUpLeg
	{
		OFFSET 6.951974 -9.140623 -0.681533
		CHANNELS 3 Zrotation Yrotation Xrotation
		JOINT LeftLeg
		{
			OFFSET 3.427654 -37.519855 -0.449580
			CHANNELS 3 Zrotation Yrotation Xrotation
			JOINT LeftFoot
			{
				OFFSET -1.359570 -39.796059 -4.369333
				CHANNELS 3 Zrotation Yrotation Xrotation
				JOINT LeftToe
				{
					OFFSET 2.635814 -5.579078 11.928840
					CHANNELS 3 Zrotation Yrotation Xrotation
					End Site
					{
						OFFSET 0.000000 0.000000 0.000000
					}
				}
			}
		}
	}
	JOINT RightUpLeg
	{
		OFFSET -6.767048 -9.052170 -0.431982
		CHANNELS 3 Zrotation Yrotation Xrotation
		JOINT RightLeg
		{
			OFFSET -3.829005 -38.256897 -0.885003
			CHANNELS 3 Zrotation Yrotation Xrotation
			JOINT RightFoot
			{
				OFFSET 1.577377 -39.841461 -4.231180
				CHANNELS 3 Zrotation Yrotation Xrotation
				JOINT RightToe
				{
					OFFSET -2.537174 -4.814398 12.334795
					CHANNELS 3 Zrotation Yrotation Xrotation
					End Site
					{
						OFFSET 0.000000 0.000000 0.000000
					}
				}
			}
		}
	}
	JOINT Spine
	{
		OFFSET -0.253288 10.896323 -2.669631
		CHANNELS 3 Zrotation Yrotation Xrotation
		JOINT Spine1
		{
			OFFSET 0.548704 13.518043 0.109247
			CHANNELS 3 Zrotation Yrotation Xrotation
			JOINT Spine2
			{
				OFFSET 0.145701 5.292222 2.542457
				CHANNELS 3 Zrotation Yrotation Xrotation
				JOINT Neck
				{
					OFFSET -0.277840 21.387037 -4.285703
					CHANNELS 3 Zrotation Yrotation Xrotation
					JOINT Head
					{
						OFFSET 0.515184 6.496960 5.134897
						CHANNELS 3 Zrotation Yrotation Xrotation
						End Site
						{
							OFFSET 0.000000 0.000000 0.000000
						}
					}
				}
				JOINT LeftShoulder
				{
					OFFSET 7.884473 12.174932 -3.408961
					CHANNELS 3 Zrotation Yrotation Xrotation
					JOINT LeftArm
					{
						OFFSET 9.097692 3.046888 -0.886815
						CHANNELS 3 Zrotation Yrotation Xrotation
						JOINT LeftForeArm
						{
							OFFSET 25.961220 -1.277207 -2.745643
							CHANNELS 3 Zrotation Yrotation Xrotation
							JOINT LeftHand
							{
								OFFSET 24.923361 0.898606 -0.117091
								CHANNELS 3 Zrotation Yrotation Xrotation
								End Site
								{
									OFFSET 0.000000 0.000000 0.000000
								}
							}
						}
					}
				}
				JOINT RightShoulder
				{
					OFFSET -8.175920 11.883285 -3.861528
					CHANNELS 3 Zrotation Yrotation Xrotation
					JOINT RightArm
					{
						OFFSET -9.601238 3.255117 -0.914307
						CHANNELS 3 Zrotation Yrotation Xrotation
						JOINT RightForeArm
						{
							OFFSET -25.374195 -1.332924 -2.140099
							CHANNELS 3 Zrotation Yrotation Xrotation
							JOINT RightHand
							{
								OFFSET -25.529810 0.777228 -0.555919
								CHANNELS 3 Zrotation Yrotation Xrotation
								End Site
								{
									OFFSET 0.000000 0.000000 0.000000
								}
							}
						}
					}
				}
			}
		}
	}
}
MOTION
Frames: 18
Frame Time: 0.033333
-0.601781 89.061172 85.862549 -123.151919 4.123904 79.735540 13.497843 7.050228 -15.033388 -9.539760 13.902755 51.810964 3.734160 7.375310 -36.775487 nan nan nan -10.293905 -11.482130 -14.370952 2.235190 -17.587028 43.210471 2.829859 -1.663079 -26.297277 nan nan nan -1.453984 3.433623 14.099901 7.503101 -3.905784 2.749602 1.788900 -0.637215 1.859999 8.548951 -11.129262 9.527210 0.189700 -19.882297 21.260972 -13.188511 -14.790484 -3.562965 -56.867414 -37.484769 20.807404 162.825188 -72.299012 -126.124872 4.706977 -15.941538 -17.572633 16.363791 9.583486 -4.627243 35.418157 20.074167 -3.924480 -70.064364 45.207536 -48.610952 -2.875921 6.743929 -3.871977 
-0.671997 89.551277 85.862213 -123.225902 4.226485 79.599789 13.280634 6.964630 -14.946172 -9.247691 14.053292 51.642292 3.888986 7.392636 -36.555134 nan nan nan -9.956088 -11.389386 -14.028299 2.166542 -17.614963 43.280084 2.640547 -1.719723 -26.528856 nan nan nan -1.446267 3.480032 14.032811 7.556334 -3.912929 2.869121 1.851273 -0.765023 1.877114 8.517738 -10.990217 9.583318 0.241179 -19.855562 21.288184 -12.980422 -14.764298 -3.711171 -57.001306 -37.808858 20.549428 161.857750 -71.725974 -125.133842 4.618891 -16.048366 -18.020206 16.239652 9.520532 -4.762801 36.193302 20.161848 -3.587277 -69.927329 45.191246 -48.255881 -2.853645 6.810482 -3.923100 
-0.770872 90.040382 85.880142 -123.359831 4.290693 79.430151 13.076190 6.860293 -14.717103 -8.912537 14.234214 51.422512 3.933581 7.515557 -36.280239 nan nan nan -9.672722 -11.334049 -13.621975 2.116267 -17.583958 43.312343 2.526263 -1.747251 -26.782711 nan nan nan -1.512902 3.574999 14.046284 7.573554 -3.929418 2.893357 1.958657 -0.720945 1.899430 8.514173 -11.026570 9.693662 0.291023 -19.840384 21.286471 -12.796963 -14.865847 -3.769159 -57.207162 -38.081845 20.455814 160.943679 -71.081328 -124.403301 4.723281 -15.997382 -18.557695 16.269955 9.527848 -4.657352 36.662639 19.974551 -3.372618 -70.120049 45.144210 -48.351619 -2.887259 6.888930 -3.997470 
-0.857711 90.529434 85.881233 -123.499639 4.380791 79.281217 12.961707 6.779943 -14.532884 -8.345924 14.330643 51.331105 4.226925 7.947337 -36.089688 nan nan nan -9.359969 -11.253471 -13.279416 2.016485 -17.647690 43.406365 2.438943 -1.830544 -26.981545 nan nan nan -1.637773 3.673857 14.083511 7.627345 -3.917673 2.866335 2.128366 -0.676726 1.953721 8.543853 -11.078769 9.673647 0.302629 -19.887262 21.343707 -12.577731 -14.972955 -3.897439 -57.476399 -38.359765 20.469405 160.234948 -70.521842 -123.652637 5.068258 -15.947688 -18.629305 16.262687 9.594383 -4.427381 36.983487 19.691332 -3.260295 -70.323264 45.087221 -48.428186 -2.879813 6.921112 -4.063718 
-0.933929 91.012146 85.872932 -123.639990 4.514514 79.079428 12.935326 6.724379 -14.244172 -7.544999 14.354767 51.296628 4.505970 8.669096 -35.826217 nan nan nan -9.017432 -11.183630 -12.946483 1.896257 -17.752907 43.584934 2.427631 -1.951066 -27.170369 nan nan nan -1.726861 3.751343 14.197631 7.703899 -3.857852 2.819095 2.315061 -0.712032 2.004265 8.526782 -11.021932 9.647071 0.309514 -19.918807 21.454880 -12.351862 -15.026463 -4.091024 -57.671354 -38.608283 20.426460 159.792505 -70.064867 -123.088282 5.599903 -15.879842 -18.594314 16.151141 9.620077 -4.403331 37.449934 19.457770 -3.066777 -70.359127 45.051676 -48.296337 -3.162482 6.794885 -3.939618 
-1.015116 91.495323 85.871277 -123.767095 4.610746 78.862495 12.910938 6.578583 -13.819468 -6.693831 14.386917 51.204200 4.550421 9.352072 -35.413735 nan nan nan -8.716828 -11.120748 -12.649452 1.763093 -17.805823 43.874968 2.488620 -2.050502 -27.411657 nan nan nan -1.756606 3.788154 14.343299 7.725435 -3.801939 2.704151 2.416612 -0.830211 2.074839 8.468554 -10.894774 9.706352 0.357152 -19.883284 21.589670 -12.223893 -15.014580 -4.215136 -57.733307 -38.811177 20.244185 159.485171 -69.545470 -122.801412 5.884784 -15.779468 -18.646430 16.084366 9.636844 -4.516981 38.021405 19.299351 -2.788323 -70.348139 45.065288 -48.061852 -3.194644 6.723384 -3.524027 
-1.101187 91.964981 85.858315 -123.938748 4.655792 78.690148 12.941765 6.334074 -13.401913 -6.020358 14.378796 51.180156 4.546166 9.740208 -35.065002 nan nan nan -8.508551 -11.073294 -12.476052 1.634345 -17.844933 44.336758 2.583463 -1.975248 -27.456326 nan nan nan -1.776294 3.856208 14.384793 7.711261 -3.726222 2.681890 2.453912 -0.969898 2.142332 8.432910 -10.801826 9.756310 0.379203 -19.847927 21.683219 -12.145433 -14.883882 -4.321151 -57.905727 -39.166900 20.068117 159.376239 -69.104358 -122.689369 5.887955 -15.780350 -18.512362 16.052830 9.630682 -4.620755 38.501350 19.177718 -2.554349 -70.342382 45.074003 -47.806562 -2.857729 6.734360 -3.202550 
-1.189869 92.417740 85.837212 -124.104686 4.714391 78.548692 13.048986 6.023577 -12.967172 -5.625402 14.199486 51.071948 4.662138 9.946613 -34.893916 nan nan nan -8.402469 -10.986586 -12.381460 1.613583 -18.004082 44.916231 2.689992 -1.798307 -27.286284 nan nan nan -1.899191 3.950810 14.328308 7.755094 -3.645677 2.790791 2.540668 -0.899483 2.189010 8.520941 -10.838117 9.688647 0.380808 -19.890651 21.741398 -12.004634 -14.992655 -4.370020 -58.136838 -39.627953 20.130055 158.727756 -68.715189 -122.039482 5.949302 -15.904227 -18.380653 16.089254 9.632010 -4.524390 38.674025 18.873648 -2.485652 -70.549255 44.988800 -47.906601 -2.688739 6.798391 -3.491349 
-1.278554 92.846252 85.820129 -124.246473 4.757693 78.357159 13.137788 5.725699 -12.388968 -5.442335 13.800451 50.794051 4.826709 10.003571 -34.976342 nan nan nan -8.409922 -10.940104 -12.326314 1.672667 -18.157067 45.652042 2.877534 -1.605755 -27.065890 nan nan nan -2.061578 4.000057 14.437165 7.805799 -3.612914 2.776933 2.637631 -0.700068 2.205819 8.611562 -10.884706 9.667832 0.382906 -19.973379 21.851103 -11.833140 -15.270303 -4.374336 -58.241142 -39.984934 20.196037 157.903883 -68.372390 -121.297628 6.292015 -16.129812 -18.534727 16.236624 9.696128 -4.284828 38.650812 18.475744 -2.475737 -70.831982 44.947588 -48.283677 -2.780908 6.950059 -4.086765 
-1.372286 93.293228 85.785065 -124.419809 4.855380 78.139468 13.340131 5.497475 -11.739598 -5.486604 13.197004 50.516086 4.823512 9.954609 -35.280721 nan nan nan -8.344919 -10.929397 -12.360310 1.694856 -18.223078 46.636408 3.226199 -1.395360 -26.738065 nan nan nan -2.201618 4.017366 14.433902 7.869593 -3.570882 2.897856 2.721228 -0.647434 2.218122 8.749688 -10.807464 9.746521 0.350588 -20.028153 21.918208 -11.687256 -15.408920 -4.434569 -58.288487 -40.318209 20.133231 157.444880 -68.126962 -120.775505 6.535535 -16.305310 -18.730894 16.324094 9.677846 -4.281929 38.800565 18.289746 -2.380627 -70.808767 45.070813 -48.173614 -2.736770 7.039777 -4.335036 
-1.475561 93.732018 85.732208 -124.623374 4.953933 77.888721 13.544524 5.338223 -11.015773 -5.615066 12.491151 50.194775 4.776284 10.020251 -35.630000 nan nan nan -8.346484 -10.957318 -12.500021 1.638573 -18.347746 47.900582 3.672987 -1.103610 -26.159954 nan nan nan -2.320126 4.116850 14.288868 7.953934 -3.394408 3.318836 2.837165 -0.850750 2.156622 8.834377 -10.739319 9.832510 0.351651 -20.109328 21.762594 -11.631876 -15.532048 -4.621637 -58.174009 -40.610363 20.045668 157.216199 -67.910479 -120.448927 6.610237 -16.056174 -18.389478 16.259609 9.657632 -4.440127 39.059999 18.216967 -2.286195 -70.716977 45.193414 -48.006737 -2.636850 7.036986 -4.300135 
-1.573887 94.118416 85.695305 -124.794691 4.936788 77.719256 13.521923 5.252040 -10.384749 -5.736722 11.640229 49.840463 4.965315 10.314074 -35.982966 nan nan nan -8.636973 -11.181207 -12.922004 1.564228 -18.504886 49.569794 4.237998 -0.598679 -25.153297 nan nan nan -2.362440 3.944702 14.467244 7.873645 -3.383591 3.171352 2.736788 -0.783829 2.168293 8.809128 -10.656642 10.037368 0.411745 -20.032913 21.755940 -11.438180 -15.360241 -4.899124 -58.197895 -40.735498 20.058205 157.490922 -67.862804 -120.697235 6.860585 -15.474840 -17.778960 16.264365 9.639081 -4.554564 39.579117 18.190523 -2.034137 -70.686879 45.318188 -48.131974 -2.740953 7.000666 -4.157268 
-1.645057 94.491356 85.647766 -125.011421 4.911831 77.712409 13.528507 5.147497 -9.950137 -5.922060 10.981917 49.522463 5.117158 10.706193 -36.413029 nan nan nan -8.939809 -11.352411 -13.759382 1.556058 -18.542273 51.608718 5.013150 -0.063425 -23.930373 nan nan nan -2.519401 3.867460 14.399484 7.877005 -3.243804 3.083932 2.714007 -0.755872 2.214135 8.860470 -10.585532 10.067797 0.353300 -20.009464 21.969708 -11.259608 -15.227576 -4.980766 -58.488942 -40.904734 20.266035 157.307791 -67.836147 -120.686869 7.190261 -15.599431 -18.188462 16.330182 9.444915 -4.658257 39.897943 18.216577 -1.753919 -70.712703 45.428589 -48.203435 -2.674328 7.025568 -4.127402 
-1.693970 94.887871 85.584160 -125.249884 5.020726 77.830889 13.729198 5.083769 -9.731228 -6.014840 10.635806 49.361936 5.231009 11.107475 -36.819087 nan nan nan -9.100375 -11.398908 -14.873151 1.559209 -18.670563 53.775478 5.559491 0.446046 -22.754064 nan nan nan -2.614492 3.708447 14.099817 7.955662 -3.110939 3.106744 2.688546 -0.647927 2.277288 8.922342 -10.483243 10.074861 0.218044 -19.974432 22.161636 -11.147411 -15.152143 -5.119617 -58.753971 -40.993434 20.491711 157.316123 -67.868908 -120.745100 7.378048 -15.373551 -18.232916 16.443407 9.304828 -4.576165 40.017536 18.213436 -1.571463 -71.038759 45.537087 -48.317020 -2.422086 6.777543 -4.065616 
-1.752135 95.255043 85.534737 -125.385824 5.139604 77.806604 13.918894 5.073677 -9.476314 -6.008745 10.339695 49.312301 5.293300 11.515496 -37.081990 nan nan nan -9.476280 -11.608835 -15.853941 1.502652 -18.954835 55.993849 6.093521 1.131666 -21.239334 nan nan nan -2.595267 3.519922 14.111169 7.978217 -3.052869 3.081124 2.629143 -0.573364 2.238131 8.896649 -10.384460 10.116728 0.159819 -19.797677 22.292270 -11.055667 -15.170158 -5.280084 -58.832659 -40.910866 20.629852 157.425286 -67.843756 -120.872964 7.573267 -15.190470 -18.164919 16.514945 9.238500 -4.576353 40.131826 18.186816 -1.452991 -71.358368 45.699811 -48.606698 -2.235454 6.633186 -4.071149 
-1.821722 95.589493 85.492332 -125.525000 5.210430 77.654539 14.067363 5.103745 -9.125188 -5.954292 10.071189 49.233970 5.334872 11.898507 -37.279006 nan nan nan -10.038618 -11.815512 -16.727275 1.454836 -19.207755 58.263650 7.046937 1.933297 -19.049421 nan nan nan -2.536830 3.439191 14.300201 7.973992 -2.966342 3.099530 2.546396 -0.627943 2.154383 8.806579 -10.306515 10.088597 0.182037 -19.644808 22.454171 -10.961889 -15.244419 -5.399295 -58.852199 -40.799330 20.748252 157.326380 -67.810179 -120.962461 7.582599 -15.187594 -18.030303 16.528679 9.127909 -4.801013 40.350615 18.209638 -1.275295 -71.605911 45.917114 -49.021433 -1.890181 6.597087 -4.004514 
-1.873811 95.921425 85.443451 -125.712372 5.264750 77.552740 14.277179 5.169295 -8.869518 -5.920529 9.927476 49.195517 5.439435 12.239021 -37.365454 nan nan nan -10.572255 -11.888518 -17.676530 1.509836 -19.246476 60.405320 8.445977 2.825351 -16.480711 nan nan nan -2.561018 3.435086 14.361496 8.029150 -2.850040 3.182960 2.514457 -0.710191 2.164350 8.747686 -10.276874 10.004391 0.218864 -19.554761 22.483933 -10.923744 -15.177407 -5.484288 -58.945480 -40.790056 20.931075 157.328497 -67.954842 -121.276704 7.442432 -15.277956 -17.774445 16.562579 8.964520 -5.007456 40.448065 18.302170 -1.047109 -71.966263 46.190861 -49.537079 -1.444165 6.651478 -3.664173 
-1.903355 96.259468 85.397232 -125.845426 5.344610 77.443991 14.575909 5.225415 -8.653963 -5.906708 9.833489 49.221590 5.613332 12.507586 -37.309443 nan nan nan -11.085449 -11.935668 -18.610832 1.635807 -19.207629 62.334687 9.584651 3.613353 -14.185215 nan nan nan -2.598879 3.340684 14.543447 8.079585 -2.744215 3.191459 2.500374 -0.730721 2.135318 8.704339 -10.245581 9.890758 0.158431 -19.453109 22.606954 -10.935945 -15.055959 -5.515892 -58.893472 -40.742671 20.993911 157.633362 -68.199948 -121.854458 7.266660 -15.341168 -17.545400 16.616158 8.864235 -5.069939 40.426796 18.394739 -0.920406 -72.533888 46.427870 -50.192633 -1.101694 6.618075 -3.320571 
